# xmcd
#
# Track frame offsets: 
#        225
#        9825
#        19955
#        31175
#        40615
#        56135
#        73940
#        83910
#        98692
#        111360
#        122987
#        139867
#        149885
#        163702
#        175245
#
# Disc length: 2506 seconds
#
# Revision: 1
# Processed by: cddbd v1.5.2PL0 Copyright (c) Steve Scherf et al.
# Submitted via: ExactAudioCopy v0.95b3
#
DISCID=d509c70f
DTITLE=Tulaci - Zlate casy ceske country  II
DYEAR=2005
DGENRE=Country
TTITLE0=Stánky
TTITLE1=Inzerát
TTITLE2=Suzanne
TTITLE3=Valèíèek
TTITLE4=Jarní král
TTITLE5=Snìhulák
TTITLE6=Skládanka
TTITLE7=Poutník z kytarou
TTITLE8=Hráz
TTITLE9=Rosa na kolejích
TTITLE10=Návraty do dìtství
TTITLE11=Kamarád
TTITLE12=Oveèka
TTITLE13=Na kameni kámen
TTITLE14=Kotlík
EXTD=
EXTT0=
EXTT1=
EXTT2=
EXTT3=
EXTT4=
EXTT5=
EXTT6=
EXTT7=
EXTT8=
EXTT9=
EXTT10=
EXTT11=
EXTT12=
EXTT13=
EXTT14=
PLAYORDER=
